<svg width="18" height="18" viewBox="0 0 18 18" fill="none" xmlns="http://www.w3.org/2000/svg">
<path opacity="0.8" fill-rule="evenodd" clip-rule="evenodd" d="M8.09021 4.75504L0.788148 12.8801C-0.305346 14.0925 -0.253662 15.949 0.897544 17.1006C2.05179 18.2553 3.90769 18.3039 5.11965 17.2131L13.2418 9.9084C14.4872 9.91752 15.7205 9.46174 16.6317 8.54106C18.5149 6.66323 18.4542 3.52442 16.4495 1.53417C14.4721 -0.453037 11.3342 -0.510769 9.45708 1.36705C8.53672 2.28773 8.0811 3.50923 8.09021 4.75504ZM11.8598 8.9391L4.01998 15.9916C3.45805 16.496 2.5954 16.4747 2.06081 15.9369C1.52621 15.4021 1.50509 14.5422 2.00931 13.9801C4.03531 11.7285 7.653 7.70243 9.05936 6.13758L11.8598 8.9391ZM13.5 8.25542L9.74279 4.49676C9.79139 3.77055 10.0799 3.07164 10.6206 2.53078C11.8751 1.27586 13.9678 1.37006 15.2952 2.6979C16.6317 4.02575 16.7228 6.12235 15.4775 7.37727C14.9246 7.91509 14.226 8.20681 13.5 8.25542Z" fill="lightgrey"/>
</svg>
