<svg width="32" height="32" viewBox="0 0 32 32" fill="none" xmlns="http://www.w3.org/2000/svg">
<path fill-rule="evenodd" clip-rule="evenodd" d="M20.2689 19.3737C19.8979 19.7568 19.9128 20.3631 20.3012 20.7278C20.6896 21.0925 21.3053 21.0785 21.6763 20.6954L24.4035 17.8791L27.3156 20.8864C27.6866 21.2695 28.3022 21.2835 28.6906 20.9188C29.079 20.554 29.094 19.9478 28.723 19.5647L25.7471 16.4916L28.5292 13.6186C28.9002 13.2355 28.8852 12.6293 28.4968 12.2645C28.1084 11.8998 27.4928 11.9138 27.1218 12.2969L24.4035 15.104L21.8701 12.4879C21.4991 12.1048 20.8835 12.0908 20.4951 12.4555C20.1067 12.8202 20.0917 13.4265 20.4627 13.8096L23.0598 16.4916L20.2689 19.3737Z" fill="white"/>
<path fill-rule="evenodd" clip-rule="evenodd" d="M16.1385 9.74993L9.47894 13.6673C7.50702 14.8273 7.50702 17.679 9.47894 18.8389L16.1385 22.7563V9.74993ZM8.4649 11.9434C5.17837 13.8767 5.17837 18.6295 8.4649 20.5628L16.6314 25.3666C17.2981 25.7588 18.1385 25.2781 18.1385 24.5047V8.00152C18.1385 7.2281 17.2981 6.74745 16.6314 7.13958L8.4649 11.9434Z" fill="white"/>
</svg>
